<?xml version="1.0" encoding="UTF-8"?>
<svg id="Layer_2" data-name="Layer 2" xmlns="http://www.w3.org/2000/svg" viewBox="0 0 249.72 143.89">
  <defs>
    <style>
      .cls-1 {
        stroke: #ed1c24;
      }

      .cls-1, .cls-2, .cls-3 {
        stroke-miterlimit: 10;
      }

      .cls-1, .cls-4 {
        fill: #ed1c24;
      }

      .cls-2 {
        stroke: #1c75bc;
      }

      .cls-2, .cls-3 {
        fill: none;
        stroke-width: .75px;
      }

      .cls-5 {
        font-family: CMUSerif-Roman, 'CMU Serif';
        font-size: 11px;
      }

      .cls-5, .cls-6 {
        fill: #231f20;
      }

      .cls-7 {
        fill: #1c75bc;
      }

      .cls-3 {
        stroke: #231f20;
      }
    </style>
  </defs>
  <g id="Layer_1-2" data-name="Layer 1">
    <g>
      <line class="cls-3" x1="150.52" y1="143.89" x2="150.88" y2="4.53"/>
      <path class="cls-6" d="m150.89,0c.78,2.13,2.13,4.78,3.55,6.42l-3.56-1.3-3.57,1.28c1.43-1.63,2.79-4.27,3.58-6.4Z"/>
    </g>
    <g>
      <line class="cls-3" x1="52.22" y1="71.89" x2="245.03" y2="71.89"/>
      <path class="cls-6" d="m249.56,71.89c-2.13.79-4.77,2.14-6.41,3.57l1.29-3.57-1.29-3.57c1.64,1.43,4.28,2.78,6.41,3.57Z"/>
    </g>
    <g>
      <path class="cls-3" d="m150.67,108.22c-25.59,0-51.33-16.29-51.33-36.39s25.74-36.39,51.33-36.39"/>
      <path class="cls-6" d="m155.2,35.44c-2.13.79-4.77,2.14-6.41,3.57l1.29-3.57-1.29-3.57c1.64,1.43,4.28,2.78,6.41,3.57Z"/>
    </g>
    <g>
      <path class="cls-3" d="m150.67,35.44c25.59,0,50.33,16.29,50.33,36.39s-24.74,36.39-50.33,36.39"/>
      <path class="cls-6" d="m146.15,108.22c2.13-.79,4.77-2.14,6.41-3.57l-1.29,3.57,1.29,3.57c-1.64-1.43-4.28-2.78-6.41-3.57Z"/>
    </g>
    <g>
      <path class="cls-3" d="m150.56,98.67c-19.88,0-38-12.09-38-27s18.12-27,38-27"/>
      <path class="cls-6" d="m155.08,44.67c-2.13.79-4.77,2.14-6.41,3.57l1.29-3.57-1.29-3.57c1.64,1.43,4.28,2.78,6.41,3.57Z"/>
    </g>
    <g>
      <path class="cls-3" d="m150.56,44.67c19.88,0,38,12.09,38,27s-18.12,27-38,27"/>
      <path class="cls-6" d="m146.03,98.67c2.13-.79,4.77-2.14,6.41-3.57l-1.29,3.57,1.29,3.57c-1.64-1.43-4.28-2.78-6.41-3.57Z"/>
    </g>
    <g>
      <path class="cls-3" d="m150.56,86.83c-12.43,0-22.5-6.72-22.5-15s10.07-15,22.5-15"/>
      <path class="cls-6" d="m155.08,56.83c-2.13.79-4.77,2.14-6.41,3.57l1.29-3.57-1.29-3.57c1.64,1.43,4.28,2.78,6.41,3.57Z"/>
    </g>
    <g>
      <path class="cls-3" d="m150.56,56.83c12.43,0,22.5,6.72,22.5,15s-10.07,15-22.5,15"/>
      <path class="cls-6" d="m146.03,86.83c2.13-.79,4.77-2.14,6.41-3.57l-1.29,3.57,1.29,3.57c-1.64-1.43-4.28-2.78-6.41-3.57Z"/>
    </g>
    <path class="cls-3" d="m150.56,12.83c4.51,0,15.05.1,27,4.83,5.21,2.06,4.75,2.66,18,9,13.39,6.41,15.94,6.8,18.5,6.67,5.66-.3,7.9-3.01,17.5-8,7.41-3.85,13.79-6.25,18-7.67"/>
    <g>
      <path class="cls-3" d="m51.56,17.67c5.04,1.84,11.26,4.37,18.17,7.83,10.05,5.04,12.55,7.54,18.17,7.67,2.4.05,4.79-.34,17.67-6.5,13.19-6.31,12.87-6.95,18-9,11.86-4.74,22.36-4.83,27-4.83"/>
      <path class="cls-6" d="m155.08,12.83c-2.13.79-4.77,2.14-6.41,3.57l1.29-3.57-1.29-3.57c1.64,1.43,4.28,2.78,6.41,3.57Z"/>
    </g>
    <g>
      <path class="cls-3" d="m150.56,130.5c4.51,0,15.05-.1,27-4.83,5.21-2.06,4.75-2.66,18-9,13.39-6.41,15.94-6.8,18.5-6.67,5.66.3,7.9,3.01,17.5,8,7.41,3.85,13.79,6.25,18,7.67"/>
      <path class="cls-6" d="m146.03,130.5c2.13.79,4.77,2.14,6.41,3.57l-1.29-3.57,1.29-3.57c-1.64,1.43-4.28,2.78-6.41,3.57Z"/>
    </g>
    <path class="cls-3" d="m51.56,125.67c5.04-1.84,11.26-4.37,18.17-7.83,10.05-5.04,12.55-7.54,18.17-7.67,2.4-.05,4.79.34,17.67,6.5,13.19,6.31,12.87,6.95,18,9,11.86,4.74,22.36,4.83,27,4.83"/>
    <circle class="cls-1" cx="150.67" cy="71.89" r="1.29"/>
    <g>
      <path class="cls-2" d="m96.56,56.66c-3.71,5.26-6.66,10.55-9,15.23"/>
      <path class="cls-7" d="m99.17,52.96c-1.87,1.28-4.5,2.67-6.61,3.18l3.66,1,2.17,3.11c-.22-2.16.2-5.1.78-7.29Z"/>
    </g>
    <g>
      <path class="cls-2" d="m204.56,56.66c-10.57-14.98-27.36-29.77-54-29.77s-43.43,14.79-54,29.77"/>
      <path class="cls-7" d="m207.17,60.36c-.58-2.2-1-5.13-.78-7.29l-2.17,3.11-3.66,1c2.11.51,4.74,1.9,6.61,3.18Z"/>
    </g>
    <path class="cls-2" d="m213.56,71.89c-2.34-4.68-5.29-9.96-9-15.23"/>
    <g>
      <path class="cls-2" d="m204.56,87.12c3.71-5.26,6.66-10.55,9-15.23"/>
      <path class="cls-7" d="m201.95,90.81c1.87-1.28,4.5-2.67,6.61-3.18l-3.66-1-2.17-3.11c.22,2.16-.2,5.1-.78,7.29Z"/>
    </g>
    <g>
      <path class="cls-2" d="m96.56,87.12c10.57,14.98,27.36,29.77,54,29.77s43.43-14.79,54-29.77"/>
      <path class="cls-7" d="m93.95,83.42c.58,2.2,1,5.13.78,7.29l2.17-3.11,3.66-1c-2.11-.51-4.74-1.9-6.61-3.18Z"/>
    </g>
    <path class="cls-2" d="m87.56,71.89c2.34,4.68,5.29,9.96,9,15.23"/>
    <g>
      <path class="cls-2" d="m222.56,56.66c-3.71,5.26-6.66,10.55-9,15.23"/>
      <path class="cls-7" d="m225.17,52.96c-1.87,1.28-4.5,2.67-6.61,3.18l3.66,1,2.17,3.11c-.22-2.16.2-5.1.78-7.29Z"/>
    </g>
    <path class="cls-2" d="m249.56,32.82c-11.84,5.69-20.57,14.73-27,23.84"/>
    <g>
      <path class="cls-2" d="m222.56,87.12c6.43,9.11,15.16,18.15,27,23.84"/>
      <path class="cls-7" d="m219.95,83.42c.58,2.2,1,5.13.78,7.29l2.17-3.11,3.66-1c-2.11-.51-4.74-1.9-6.61-3.18Z"/>
    </g>
    <path class="cls-2" d="m213.56,71.89c2.34,4.68,5.29,9.96,9,15.23"/>
    <g>
      <path class="cls-2" d="m78.56,56.66c-6.43-9.11-15.16-18.15-27-23.84"/>
      <path class="cls-7" d="m81.17,60.36c-.58-2.2-1-5.13-.78-7.29l-2.17,3.11-3.66,1c2.11.51,4.74,1.9,6.61,3.18Z"/>
    </g>
    <path class="cls-2" d="m87.56,71.89c-2.34-4.68-5.29-9.96-9-15.23"/>
    <g>
      <path class="cls-2" d="m78.56,87.12c3.71-5.26,6.66-10.55,9-15.23"/>
      <path class="cls-7" d="m75.95,90.81c1.87-1.28,4.5-2.67,6.61-3.18l-3.66-1-2.17-3.11c.22,2.16-.2,5.1-.78,7.29Z"/>
    </g>
    <path class="cls-2" d="m51.56,110.95c11.84-5.69,20.57-14.73,27-23.84"/>
    <circle class="cls-4" cx="87.56" cy="71.67" r="1.29"/>
    <circle class="cls-4" cx="213.56" cy="71.67" r="1.29"/>
    <text class="cls-5" transform="translate(0 35.44)"><tspan x="0" y="0">Separatrix</tspan></text>
  </g>
</svg>