<?xml version="1.0" encoding="UTF-8"?>
<svg id="Layer_2" data-name="Layer 2" xmlns="http://www.w3.org/2000/svg" xmlns:xlink="http://www.w3.org/1999/xlink" viewBox="0 0 171.43 132.44">
  <defs>
    <style>
      .cls-1 {
        font-family: CMR10, 'CM R 10';
      }

      .cls-1, .cls-2 {
        font-size: 10.91px;
      }

      .cls-3 {
        clip-path: url(#clippath-2);
      }

      .cls-4 {
        stroke-dasharray: 0 0 1.95 1.95;
      }

      .cls-4, .cls-5, .cls-6, .cls-7, .cls-8, .cls-9, .cls-10, .cls-11, .cls-12 {
        fill: none;
      }

      .cls-4, .cls-5, .cls-6, .cls-7, .cls-9, .cls-10, .cls-11, .cls-12 {
        stroke-miterlimit: 10;
      }

      .cls-4, .cls-7, .cls-9 {
        stroke: #fbb040;
      }

      .cls-13 {
        font-family: CMR8, 'CM R 8';
      }

      .cls-13, .cls-14 {
        font-size: 7.97px;
      }

      .cls-15 {
        font-family: CMR6, 'CM R 6';
        font-size: 5.98px;
      }

      .cls-5, .cls-6, .cls-10, .cls-11 {
        stroke: #ed1c24;
      }

      .cls-5, .cls-12 {
        stroke-width: .75px;
      }

      .cls-16 {
        clip-path: url(#clippath-1);
      }

      .cls-2 {
        font-family: CMMI10, 'CMM I 10';
      }

      .cls-17 {
        clip-path: url(#clippath);
      }

      .cls-9 {
        stroke-dasharray: 0 0 2.09 2.09;
      }

      .cls-14 {
        font-family: CMMI8, 'CMM I 8';
      }

      .cls-10 {
        stroke-linecap: round;
      }

      .cls-18 {
        font-size: 12px;
      }

      .cls-18, .cls-19 {
        font-family: CMUSerif-Roman, 'CMU Serif';
      }

      .cls-18, .cls-19, .cls-20 {
        fill: #231f20;
      }

      .cls-21 {
        fill: #ed1c24;
      }

      .cls-19 {
        font-size: 10px;
      }

      .cls-11 {
        stroke-dasharray: 0 0 2.01 2.01;
      }

      .cls-12 {
        stroke: #231f20;
      }
    </style>
    <clipPath id="clippath">
      <rect class="cls-8" y="118.43" width="12.96" height="14.01"/>
    </clipPath>
    <clipPath id="clippath-1">
      <rect class="cls-8" x="158.47" y="74.54" width="12.96" height="14.01"/>
    </clipPath>
    <clipPath id="clippath-2">
      <rect class="cls-8" x="41.82" width="61.68" height="14.66"/>
    </clipPath>
  </defs>
  <g id="Layer_1-2" data-name="Layer 1">
    <g>
      <path class="cls-6" d="m134.66,25.48s0,.35-.02,1"/>
      <path class="cls-11" d="m134.6,28.49c-.21,11.16-.94,50.08-.85,59.38"/>
      <path class="cls-6" d="m133.76,88.88c.01.59.03.94.06.99"/>
    </g>
    <g>
      <path class="cls-6" d="m42.99,51.55s0,.35-.02,1"/>
      <path class="cls-11" d="m42.93,54.55c-.21,11.16-.94,50.08-.85,59.38"/>
      <path class="cls-6" d="m42.1,114.94c.01.59.03.94.06.99"/>
    </g>
    <g>
      <line class="cls-12" x1="61.24" y1="90.77" x2="61.24" y2="16.85"/>
      <path class="cls-20" d="m61.24,12.32c.79,2.13,2.14,4.77,3.57,6.41l-3.57-1.29-3.57,1.29c1.43-1.64,2.78-4.28,3.57-6.41Z"/>
    </g>
    <g>
      <line class="cls-12" x1="52.24" y1="81.55" x2="153.95" y2="81.55"/>
      <path class="cls-20" d="m158.47,81.55c-2.13.79-4.77,2.14-6.41,3.57l1.29-3.57-1.29-3.57c1.64,1.43,4.28,2.78,6.41,3.57Z"/>
    </g>
    <g>
      <line class="cls-12" x1="66.72" y1="76.66" x2="16.31" y2="122.39"/>
      <path class="cls-20" d="m12.96,125.44c1.05-2.02,2.1-4.79,2.35-6.95l1.44,3.51,3.35,1.77c-2.17.04-5.04.82-7.14,1.67Z"/>
    </g>
    <line class="cls-7" x1="53.99" y1="93.77" x2="145.33" y2="59.44"/>
    <path class="cls-7" d="m134.66,24.44c5.49,2.67,17.33,16,10.67,35"/>
    <path class="cls-7" d="m42.99,51.55c5.49,2.67,17.67,23.22,11,42.22"/>
    <path class="cls-7" d="m42.99,51.55c-7.67,1.56-14.91,9.15-14.67,28.59"/>
    <g>
      <line class="cls-7" x1="54.43" y1="70.89" x2="55.37" y2="70.55"/>
      <line class="cls-4" x1="57.21" y1="69.9" x2="115" y2="49.43"/>
      <line class="cls-7" x1="115.91" y1="49.1" x2="116.86" y2="48.77"/>
    </g>
    <line class="cls-7" x1="28.33" y1="80.14" x2="54.43" y2="70.89"/>
    <g>
      <path class="cls-7" d="m134.66,24.44c-.34,0-.67,0-1,.03"/>
      <path class="cls-9" d="m131.6,24.79c-8.46,2.06-14.61,12.72-14.8,21.94"/>
      <path class="cls-7" d="m116.8,47.77c0,.34.03.67.05,1"/>
    </g>
    <path class="cls-10" d="m42.16,115.94c34.83,3,58.5-24.33,91.67-26.06"/>
    <path class="cls-6" d="m42.99,51.55c39.33,4.22,67.91-29.44,91.67-27.11"/>
    <g id="LaTeX2AI">
      <g class="cls-17">
        <text class="cls-2" transform="translate(1 128.52)"><tspan x="0" y="0">x</tspan></text>
        <text class="cls-13" transform="translate(7.23 124.56)"><tspan x="0" y="0">1</tspan></text>
        <text class="cls-13" transform="translate(7.23 131.44)"><tspan x="0" y="0">0</tspan></text>
      </g>
    </g>
    <g id="LaTeX2AI-2" data-name="LaTeX2AI">
      <g class="cls-16">
        <text class="cls-2" transform="translate(159.47 84.63)"><tspan x="0" y="0">x</tspan></text>
        <text class="cls-13" transform="translate(165.7 80.67)"><tspan x="0" y="0">2</tspan></text>
        <text class="cls-13" transform="translate(165.7 87.56)"><tspan x="0" y="0">0</tspan></text>
      </g>
    </g>
    <text class="cls-19" transform="translate(27.83 38.12)"><tspan x="0" y="0">ridge</tspan></text>
    <g>
      <line class="cls-20" x1="53.33" y1="36.6" x2="80.49" y2="40.1"/>
      <g>
        <line class="cls-5" x1="53.33" y1="36.6" x2="80.49" y2="40.1"/>
        <path class="cls-21" d="m84.98,40.68c-2.21.51-5.01,1.51-6.81,2.72l1.74-3.37-.82-3.7c1.44,1.63,3.89,3.3,5.9,4.36Z"/>
      </g>
    </g>
    <g>
      <g id="LaTeX2AI-3" data-name="LaTeX2AI">
        <g class="cls-3">
          <text class="cls-14" transform="translate(75.34 5.9)"><tspan x="0" y="0">t</tspan></text>
          <text class="cls-14" transform="translate(75.34 12.56)"><tspan x="0" y="0">t</tspan></text>
          <text class="cls-15" transform="translate(78.4 13.66)"><tspan x="0" y="0">0</tspan></text>
          <text class="cls-1" transform="translate(83.05 9.86)"><tspan x="0" y="0">(</tspan></text>
          <text class="cls-2" transform="translate(87.29 9.86)"><tspan x="0" y="0">x</tspan></text>
          <text class="cls-13" transform="translate(93.53 11.5)"><tspan x="0" y="0">0</tspan></text>
          <text class="cls-1" transform="translate(98.26 9.86)"><tspan x="0" y="0">)</tspan></text>
        </g>
      </g>
      <text class="cls-18" transform="translate(42.99 10.44)"><tspan x="0" y="0">FTLE</tspan></text>
    </g>
  </g>
</svg>