<?xml version="1.0" encoding="UTF-8"?>
<svg id="Layer_2" data-name="Layer 2" xmlns="http://www.w3.org/2000/svg" xmlns:xlink="http://www.w3.org/1999/xlink" viewBox="0 0 108.27 107.2">
  <defs>
    <style>
      .cls-1 {
        stroke-dasharray: 0 0 2.03 2.03;
      }

      .cls-1, .cls-2 {
        stroke: #1c75bc;
      }

      .cls-1, .cls-2, .cls-3, .cls-4 {
        fill: none;
      }

      .cls-1, .cls-2, .cls-4 {
        stroke-miterlimit: 10;
        stroke-width: .75px;
      }

      .cls-5 {
        clip-path: url(#clippath-1);
      }

      .cls-6 {
        font-size: 10.91px;
      }

      .cls-6, .cls-7 {
        font-family: CMMI10, 'CMM I 10';
      }

      .cls-7 {
        font-size: 12.12px;
      }

      .cls-8 {
        clip-path: url(#clippath);
      }

      .cls-9 {
        font-family: CMUSerif-Roman, 'CMU Serif';
        font-size: 8px;
      }

      .cls-9, .cls-10 {
        fill: #231f20;
      }

      .cls-4 {
        stroke: #231f20;
      }
    </style>
    <clipPath id="clippath">
      <rect class="cls-3" x="98.93" y="53.72" width="9.33" height="7.43"/>
    </clipPath>
    <clipPath id="clippath-1">
      <rect class="cls-3" x="35.8" width="13.42" height="11.08"/>
    </clipPath>
  </defs>
  <g id="Layer_1-2" data-name="Layer 1">
    <g>
      <line class="cls-4" x1=".27" y1="57.44" x2="94.74" y2="57.44"/>
      <path class="cls-10" d="m99.27,57.44c-2.13.79-4.77,2.14-6.41,3.57l1.29-3.57-1.29-3.57c1.64,1.43,4.28,2.78,6.41,3.57Z"/>
    </g>
    <g>
      <line class="cls-4" x1="49.77" y1="106.94" x2="49.77" y2="16.96"/>
      <path class="cls-10" d="m49.77,12.44c.79,2.13,2.14,4.77,3.57,6.41l-3.57-1.29-3.57,1.29c1.43-1.64,2.78-4.28,3.57-6.41Z"/>
    </g>
    <g id="LaTeX2AI">
      <g class="cls-8">
        <text class="cls-7" transform="translate(100.06 60.05) scale(1.02 1)"><tspan x="0" y="0">x</tspan></text>
      </g>
    </g>
    <g>
      <line class="cls-2" x1="94.77" y1="12.44" x2="94.06" y2="13.15"/>
      <line class="cls-1" x1="92.63" y1="14.58" x2="1.69" y2="105.52"/>
      <line class="cls-2" x1=".97" y1="106.23" x2=".27" y2="106.94"/>
    </g>
    <path class="cls-2" d="m76.77,12.44c0,27-58.5,67.5-58.5,94.5"/>
    <g>
      <g id="LaTeX2AI-2" data-name="LaTeX2AI">
        <g class="cls-5">
          <text class="cls-6" transform="translate(36.79 8.45)"><tspan x="0" y="0">F</tspan></text>
        </g>
      </g>
      <text class="cls-9" transform="translate(44.42 10.26)"><tspan x="0" y="0">spring</tspan></text>
    </g>
  </g>
</svg>