<?xml version="1.0" encoding="UTF-8"?>
<svg id="Layer_2" data-name="Layer 2" xmlns="http://www.w3.org/2000/svg" xmlns:xlink="http://www.w3.org/1999/xlink" viewBox="0 0 137.13 82">
  <defs>
    <style>
      .cls-1, .cls-2, .cls-3, .cls-4, .cls-5, .cls-6, .cls-7 {
        stroke-miterlimit: 10;
      }

      .cls-1, .cls-2, .cls-4, .cls-5, .cls-8, .cls-6, .cls-7 {
        fill: none;
      }

      .cls-1, .cls-3, .cls-4, .cls-5, .cls-6, .cls-7 {
        stroke: #231f20;
      }

      .cls-9 {
        font-family: CMR10, 'CM R 10';
      }

      .cls-9, .cls-10 {
        font-size: 10.91px;
      }

      .cls-11 {
        letter-spacing: .28em;
      }

      .cls-12 {
        clip-path: url(#clippath-2);
      }

      .cls-2 {
        stroke: #1c75bc;
      }

      .cls-13 {
        font-family: CMR8, 'CM R 8';
        font-size: 7.97px;
      }

      .cls-3, .cls-14 {
        fill: #231f20;
      }

      .cls-4 {
        stroke-dasharray: 0 0 3.99 2.99;
      }

      .cls-4, .cls-5, .cls-6 {
        stroke-width: .5px;
      }

      .cls-5 {
        stroke-dasharray: 0 0 3.29 2.47;
      }

      .cls-15 {
        clip-path: url(#clippath-1);
      }

      .cls-10 {
        font-family: CMMI10, 'CMM I 10';
      }

      .cls-16 {
        letter-spacing: 0em;
      }

      .cls-17 {
        clip-path: url(#clippath);
      }

      .cls-18 {
        clip-path: url(#clippath-3);
      }

      .cls-19 {
        fill: #1c75bc;
      }

      .cls-7 {
        stroke-width: .75px;
      }
    </style>
    <clipPath id="clippath">
      <rect class="cls-8" x="9.96" y="27.69" width="7.59" height="8.81"/>
    </clipPath>
    <clipPath id="clippath-1">
      <rect class="cls-8" x="62.64" y="3.05" width="50.9" height="12.9"/>
    </clipPath>
    <clipPath id="clippath-2">
      <rect class="cls-8" x="128.9" y="13.83" width="8.23" height="6.69"/>
    </clipPath>
    <clipPath id="clippath-3">
      <rect class="cls-8" x="23.09" y="6.17" width="11.57" height="6.69"/>
    </clipPath>
  </defs>
  <g id="Layer_1-2" data-name="Layer 1">
    <g>
      <line class="cls-2" x1="4.76" y1="18.5" x2="4.76" y2="48.46"/>
      <path class="cls-19" d="m4.76,54.5c-1.05-2.84-2.85-6.36-4.76-8.55l4.76,1.72,4.75-1.72c-1.9,2.18-3.7,5.71-4.75,8.55Z"/>
    </g>
    <g id="LaTeX2AI">
      <g class="cls-17">
        <text class="cls-10" transform="translate(10.96 33.38)"><tspan x="0" y="0">g</tspan></text>
      </g>
    </g>
    <circle class="cls-3" cx="49.76" cy="9.5" r="9"/>
    <circle class="cls-1" cx="49.76" cy="72.5" r="9"/>
    <g>
      <line class="cls-6" x1="49.76" y1="45.5" x2="49.76" y2="47.5"/>
      <line class="cls-5" x1="49.76" y1="49.97" x2="49.76" y2="60.26"/>
      <line class="cls-6" x1="49.76" y1="61.5" x2="49.76" y2="63.5"/>
    </g>
    <g>
      <line class="cls-6" x1="49.76" y1="18.5" x2="49.76" y2="20.5"/>
      <line class="cls-4" x1="49.76" y1="23.49" x2="49.76" y2="35.97"/>
      <line class="cls-6" x1="49.76" y1="37.46" x2="49.76" y2="39.46"/>
      <path class="cls-14" d="m49.76,45.5c-1.05-2.84-2.85-6.36-4.76-8.55l4.76,1.72,4.75-1.72c-1.9,2.18-3.7,5.71-4.75,8.55Z"/>
    </g>
    <g id="LaTeX2AI-2" data-name="LaTeX2AI">
      <g class="cls-15">
        <text class="cls-10" transform="translate(63.64 12.23)"><tspan x="0" y="0">x</tspan></text>
        <text class="cls-9" transform="translate(69.87 12.23)"><tspan x="0" y="0">(</tspan></text>
        <text class="cls-10" transform="translate(74.11 12.23)"><tspan x="0" y="0">t</tspan></text>
        <text class="cls-13" transform="translate(78.05 13.86)"><tspan x="0" y="0">0</tspan></text>
        <text class="cls-9" transform="translate(82.78 12.23)"><tspan class="cls-11" x="0" y="0">)</tspan><tspan class="cls-16" x="7.27" y="0">=</tspan></text>
        <text class="cls-10" transform="translate(101.57 12.23)"><tspan x="0" y="0">x</tspan></text>
        <text class="cls-13" transform="translate(107.81 13.86)"><tspan x="0" y="0">0</tspan></text>
      </g>
    </g>
    <line class="cls-7" x1="115.02" y1="9.5" x2="133.02" y2="9.5"/>
    <g>
      <line class="cls-7" x1="124.02" y1="22.97" x2="124.02" y2="9.5"/>
      <path class="cls-14" d="m124.02,27.5c.79-2.13,2.14-4.77,3.57-6.41l-3.57,1.29-3.57-1.29c1.43,1.64,2.78,4.28,3.57,6.41Z"/>
    </g>
    <g id="LaTeX2AI-3" data-name="LaTeX2AI">
      <g class="cls-12">
        <text class="cls-10" transform="translate(129.9 19.53)"><tspan x="0" y="0">x</tspan></text>
      </g>
    </g>
    <g id="LaTeX2AI-4" data-name="LaTeX2AI">
      <g class="cls-18">
        <text class="cls-10" transform="translate(24.09 11.86)"><tspan x="0" y="0">m</tspan></text>
      </g>
    </g>
  </g>
</svg>