<?xml version="1.0" encoding="UTF-8"?>
<svg id="Layer_2" data-name="Layer 2" xmlns="http://www.w3.org/2000/svg" xmlns:xlink="http://www.w3.org/1999/xlink" viewBox="0 0 123.63 62.7">
  <defs>
    <style>
      .cls-1 {
        stroke: #231f20;
      }

      .cls-1, .cls-2, .cls-3 {
        stroke-miterlimit: 10;
      }

      .cls-1, .cls-3, .cls-4 {
        fill: none;
      }

      .cls-2 {
        fill: #ed1c24;
        stroke: #ed1c24;
      }

      .cls-5 {
        font-family: MSBM10, 'MSB M 10';
      }

      .cls-5, .cls-6, .cls-7 {
        font-size: 10.91px;
      }

      .cls-8 {
        clip-path: url(#clippath-2);
      }

      .cls-3 {
        stroke: #1c75bc;
      }

      .cls-9 {
        font-family: CMR8, 'CM R 8';
      }

      .cls-9, .cls-10 {
        font-size: 7.97px;
      }

      .cls-11 {
        font-family: CMR6, 'CM R 6';
        font-size: 5.98px;
      }

      .cls-6 {
        font-family: CMSY10, 'CMS Y 10';
      }

      .cls-12 {
        clip-path: url(#clippath-1);
      }

      .cls-7 {
        font-family: CMMI10, 'CMM I 10';
      }

      .cls-13 {
        clip-path: url(#clippath);
      }

      .cls-10 {
        font-family: CMMI8, 'CMM I 8';
      }

      .cls-14 {
        fill: #1c75bc;
      }
    </style>
    <clipPath id="clippath">
      <rect class="cls-4" x="9.5" y="34.97" width="12.96" height="8.33"/>
    </clipPath>
    <clipPath id="clippath-1">
      <rect class="cls-4" x="50" y="14.14" width="16.72" height="14.66"/>
    </clipPath>
    <clipPath id="clippath-2">
      <rect class="cls-4" x="4.18" y="48.63" width="61.76" height="9.93"/>
    </clipPath>
  </defs>
  <g id="Layer_1-2" data-name="Layer 1">
    <circle class="cls-1" cx="18.5" cy="29.8" r="18"/>
    <circle class="cls-2" cx="12.71" cy="33.01" r="1.29"/>
    <g id="LaTeX2AI">
      <g class="cls-13">
        <text class="cls-7" transform="translate(10.5 40.67)"><tspan x="0" y="0">x</tspan></text>
        <text class="cls-9" transform="translate(16.73 42.3)"><tspan x="0" y="0">0</tspan></text>
      </g>
    </g>
    <circle class="cls-14" cx="12.71" cy="22.09" r="1.29"/>
    <circle class="cls-14" cx="22.46" cy="20.48" r="1.29"/>
    <circle class="cls-14" cx="26.21" cy="40.09" r="1.29"/>
    <circle class="cls-14" cx="30.71" cy="33.01" r="1.29"/>
    <circle class="cls-14" cx="20.4" cy="28.37" r="1.29"/>
    <circle class="cls-14" cx="29.42" cy="24.15" r="1.29"/>
    <circle class="cls-14" cx="6.29" cy="31.09" r="1.29"/>
    <circle class="cls-14" cx="18.5" cy="16.3" r="1.29"/>
    <path class="cls-1" d="m87.83,10.22c-6.71,4.17-10.61,3.75-11.17,6.58-.56,2.85,3.26,4.06,5.25,10.5.56,1.82,1.45,4.7.75,8-1.1,5.19-4.91,5.67-5.58,9.58-.99,5.74,6.05,11.29,7.33,12.25,4.81,3.63,9.74,4,17.5,4.58,9.35.7,14.03,1.05,16.75-1.92,4.13-4.51,2.23-14.32-2-20.25-3.7-5.19-7.52-5.06-8.67-9.67-1.08-4.36.91-10.23,4.75-12.42,3.51-2,6.85.05,9.08-2.5,1.38-1.57,1.5-3.94,1.08-5.58-1.31-5.13-8.91-6.98-12.42-7.83-3.31-.81-6.21-1.51-9.75-.67-5.54,1.32-5.56,4.76-12.92,9.33Z"/>
    <circle class="cls-14" cx="102.08" cy="7.34" r="1.29"/>
    <circle class="cls-2" cx="106.58" cy="49.67" r="1.29"/>
    <circle class="cls-14" cx="87.68" cy="53.59" r="1.29"/>
    <circle class="cls-14" cx="96.17" cy="44.59" r="1.29"/>
    <circle class="cls-14" cx="89.75" cy="35.59" r="1.29"/>
    <circle class="cls-14" cx="109.86" cy="38.8" r="1.29"/>
    <circle class="cls-14" cx="100.79" cy="32.38" r="1.29"/>
    <circle class="cls-14" cx="85.1" cy="21.77" r="1.29"/>
    <circle class="cls-14" cx="102.08" cy="24.15" r="1.29"/>
    <circle class="cls-14" cx="93.92" cy="15.55" r="1.29"/>
    <circle class="cls-14" cx="112.44" cy="11.09" r="1.29"/>
    <circle class="cls-14" cx="94.87" cy="28.24" r="1.29"/>
    <circle class="cls-14" cx="101.5" cy="58.09" r="1.29"/>
    <g>
      <line class="cls-3" x1="41" y1="29.8" x2="72.5" y2="29.8"/>
      <path class="cls-14" d="m78.54,29.8c-2.84,1.05-6.36,2.85-8.55,4.76l1.72-4.76-1.72-4.75c2.18,1.9,5.71,3.7,8.55,4.75Z"/>
    </g>
    <g id="LaTeX2AI-2" data-name="LaTeX2AI">
      <g class="cls-12">
        <text class="cls-7" transform="translate(51 24)"><tspan x="0" y="0">F</tspan></text>
        <text class="cls-10" transform="translate(59.53 20.04)"><tspan x="0" y="0">t</tspan></text>
        <text class="cls-10" transform="translate(58.01 26.7)"><tspan x="0" y="0">t</tspan></text>
        <text class="cls-11" transform="translate(61.07 27.8)"><tspan x="0" y="0">0</tspan></text>
      </g>
    </g>
    <g id="LaTeX2AI-3" data-name="LaTeX2AI">
      <g class="cls-8">
        <text class="cls-7" transform="translate(5.17 57.13)"><tspan x="0" y="0">U</tspan></text>
        <text class="cls-6" transform="translate(16.84 57.13)"><tspan x="0" y="0">⊂</tspan></text>
        <text class="cls-7" transform="translate(28.35 57.13)"><tspan x="0" y="0">P</tspan></text>
        <text class="cls-6" transform="translate(39.9 57.13)"><tspan x="0" y="0">⊂</tspan></text>
        <text class="cls-5" transform="translate(51.42 57.13)"><tspan x="0" y="0">R</tspan></text>
        <text class="cls-10" transform="translate(59.3 53.17)"><tspan x="0" y="0">n</tspan></text>
      </g>
    </g>
  </g>
</svg>