<svg xmlns="http://www.w3.org/2000/svg" xmlns:xlink="http://www.w3.org/1999/xlink" x="0" y="0" width="662" height="152.65625" style="
        width:662px;
        height:152.65625px;
        background: #FFF;
        fill: none;
">
        
        
        <svg xmlns="http://www.w3.org/2000/svg" class="role-diagram-draw-area"><g class="shapes-region" style="stroke: black; fill: none;"><g class="composite-shape" data-amt="diagram/shapes/plot" transform="matrix(1,0,0,1,20,20)"><g><g><g class="test-xgi"><line x1="45.8" y1="0" x2="45.8" y2="117.66666666666666" fill="none" stroke="#c3c3c3" stroke-width="0.5"/><line x1="104" y1="0" x2="104" y2="117.66666666666666" fill="none" stroke="#c3c3c3" stroke-width="0.5"/><line x1="162.20000000000002" y1="0" x2="162.20000000000002" y2="117.66666666666666" fill="none" stroke="#c3c3c3" stroke-width="0.5"/></g><g class="test-ygi"><line x1="0" y1="105.01666666666667" x2="208.33333333333334" y2="105.01666666666667" fill="none" stroke="#c3c3c3" stroke-width="0.5"/><line x1="0" y1="58.66666666666665" x2="208.33333333333334" y2="58.66666666666665" fill="none" stroke="#c3c3c3" stroke-width="0.5"/><line x1="0" y1="12.316666666666634" x2="208.33333333333334" y2="12.316666666666634" fill="none" stroke="#c3c3c3" stroke-width="0.5"/></g></g><g><g class="test-xti" style="font-family: Asana-Math, Asana;"><line x1="0" y1="58.66666666666666" x2="204.33333333333334" y2="58.66666666666666" fill="none" stroke="rgb(50,50,50)" stroke-opacity="1" stroke-width="1"/><line x1="45.8" y1="54.66666666666666" x2="45.8" y2="62.66666666666666" fill="none" stroke="rgb(50,50,50)" stroke-opacity="1" stroke-width="1"/><line x1="162.20000000000002" y1="54.66666666666666" x2="162.20000000000002" y2="62.66666666666666" fill="none" stroke="rgb(50,50,50)" stroke-opacity="1" stroke-width="1"/><path d="M199.33333333333334,55.066666666666656 L207.33333333333334,58.66666666666666 L199.33333333333334,62.26666666666666 Z" stroke="none" stroke-width="1" fill="rgb(50,50,50)" fill-opacity="1"/></g><g class="test-yti" style="font-family: Asana-Math, Asana;"><line x1="104" y1="4" x2="104" y2="117.66666666666666" fill="none" stroke="rgb(50,50,50)" stroke-opacity="1" stroke-width="1"/><line x1="100" y1="105.01666666666667" x2="108" y2="105.01666666666667" fill="none" stroke="rgb(50,50,50)" stroke-opacity="1" stroke-width="1"/><line x1="100" y1="12.316666666666634" x2="108" y2="12.316666666666634" fill="none" stroke="rgb(50,50,50)" stroke-opacity="1" stroke-width="1"/><path d="M100.4,9 L104,1 L107.6,9 Z" stroke="none" stroke-width="1" fill="rgb(50,50,50)" fill-opacity="1"/></g><g class="test-plot-expression"><defs><clipPath id="cpjhv5onwv8"><rect x="1" y="1" width="206.33333333333334" height="115.66666666666666"/></clipPath></defs><g clip-path="url(#cpjhv5onwv8)"><path d=" M0.00,235.33 L0.50,235.33 L1.00,235.33 L1.50,235.33 L2.00,235.33 L2.51,235.33 L3.01,235.33 L3.51,235.33 L4.01,235.33 L4.51,235.33 L5.01,235.33 L5.51,235.33 L6.01,235.33 L6.52,235.33 L7.02,235.33 L7.52,235.33 L8.02,235.33 L8.52,235.33 L9.02,235.33 L9.52,235.33 L10.02,235.33 L10.53,235.33 L11.03,235.33 L11.53,235.33 L12.03,235.33 L12.53,235.33 L13.03,235.33 L13.53,235.33 L14.03,235.33 L14.53,235.33 L15.04,235.33 L15.54,235.33 L16.04,235.33 L16.54,235.33 L17.04,235.33 L17.54,235.33 L18.04,235.33 L18.54,235.33 L19.05,235.33 L19.55,235.33 L20.05,235.33 L20.55,235.33 L21.05,235.33 L21.55,235.33 L22.05,235.33 L22.55,235.33 L23.06,235.33 L23.56,235.33 L24.06,235.33 L24.56,235.33 L25.06,235.33 L25.56,235.33 L26.06,235.33 L26.56,235.33 L27.06,235.33 L27.57,235.33 L28.07,235.33 L28.57,235.33 L29.07,235.33 L29.57,235.33 L30.07,235.33 L30.57,235.33 L31.07,235.33 L31.58,235.33 L32.08,235.33 L32.58,235.33 L33.08,235.33 L33.58,235.33 L34.08,235.33 L34.58,235.33 L35.08,235.33 L35.59,235.33 L36.09,235.33 L36.59,235.33 L37.09,235.33 L37.59,235.33 L38.09,235.33 L38.59,235.33 L39.09,235.33 L39.60,235.33 L40.10,235.33 L40.60,235.33 L41.10,235.33 L41.60,235.33 L42.10,235.33 L42.60,235.33 L43.10,235.33 L43.60,235.33 L44.11,235.33 L44.61,235.33 L45.11,235.33 L45.61,235.33 L46.11,235.33 L46.61,235.33 L47.11,235.33 L47.61,235.33 L48.12,233.15 L48.62,230.82 L49.12,228.51 L49.62,226.22 L50.12,223.93 L50.62,221.66 L51.12,219.41 L51.62,217.17 L52.13,214.94 L52.63,212.72 L53.13,210.52 L53.63,208.34 L54.13,206.16 L54.63,204.00 L55.13,201.86 L55.63,199.73 L56.13,197.61 L56.64,195.50 L57.14,193.41 L57.64,191.33 L58.14,189.27 L58.64,187.22 L59.14,185.19 L59.64,183.16 L60.14,181.16 L60.65,179.16 L61.15,177.18 L61.65,175.21 L62.15,173.26 L62.65,171.32 L63.15,169.39 L63.65,167.48 L64.15,165.58 L64.66,163.70 L65.16,161.83 L65.66,159.97 L66.16,158.13 L66.66,156.30 L67.16,154.48 L67.66,152.68 L68.16,150.89 L68.66,149.12 L69.17,147.36 L69.67,145.61 L70.17,143.88 L70.67,142.16 L71.17,140.45 L71.67,138.76 L72.17,137.08 L72.67,135.42 L73.18,133.77 L73.68,132.13 L74.18,130.51 L74.68,128.90 L75.18,127.30 L75.68,125.72 L76.18,124.15 L76.68,122.60 L77.19,121.05 L77.69,119.53 L78.19,118.01 L78.69,116.51 L79.19,115.03 L79.69,113.56 L80.19,112.10 L80.69,110.65 L81.19,109.22 L81.70,107.81 L82.20,106.40 L82.70,105.01 L83.20,103.64 L83.70,102.28 L84.20,100.93 L84.70,99.59 L85.20,98.27 L85.71,96.96 L86.21,95.67 L86.71,94.39 L87.21,93.13 L87.71,91.87 L88.21,90.64 L88.71,89.41 L89.21,88.20 L89.72,87.00 L90.22,85.82 L90.72,84.65 L91.22,83.49 L91.72,82.35 L92.22,81.22 L92.72,80.11 L93.22,79.01 L93.72,77.92 L94.23,76.85 L94.73,75.79 L95.23,74.74 L95.73,73.71 L96.23,72.69 L96.73,71.69 L97.23,70.70 L97.73,69.72 L98.24,68.76 L98.74,67.81 L99.24,66.87 L99.74,65.95 L100.24,65.04 L100.74,64.15 L101.24,63.27 L101.74,62.40 L102.25,61.55 L102.75,60.71 L103.25,59.88 L103.75,59.07 L104.25,58.27 L104.75,57.49 L105.25,56.71 L105.75,55.96 L106.26,55.21 L106.76,54.48 L107.26,53.77 L107.76,53.07 L108.26,52.38 L108.76,51.70 L109.26,51.04 L109.76,50.40 L110.26,49.76 L110.77,49.14 L111.27,48.54 L111.77,47.95 L112.27,47.37 L112.77,46.80 L113.27,46.25 L113.77,45.71 L114.27,45.19 L114.78,44.68 L115.28,44.19 L115.78,43.70 L116.28,43.24 L116.78,42.78 L117.28,42.34 L117.78,41.91 L118.28,41.50 L118.79,41.10 L119.29,40.71 L119.79,40.34 L120.29,39.98 L120.79,39.64 L121.29,39.31 L121.79,38.99 L122.29,38.69 L122.79,38.40 L123.30,38.12 L123.80,37.86 L124.30,37.61 L124.80,37.38 L125.30,37.16 L125.80,36.95 L126.30,36.76 L126.80,36.58 L127.31,36.41 L127.81,36.26 L128.31,36.12 L128.81,36.00 L129.31,35.88 L129.81,35.79 L130.31,35.70 L130.81,35.63 L131.32,35.58 L131.82,35.54 L132.32,35.51 L132.82,35.49 L133.32,35.49 L133.82,35.51 L134.32,35.53 L134.82,35.57 L135.32,35.63 L135.83,35.70 L136.33,35.78 L136.83,35.87 L137.33,35.98 L137.83,36.10 L138.33,36.24 L138.83,36.39 L139.33,36.56 L139.84,36.73 L140.34,36.92 L140.84,37.13 L141.34,37.35 L141.84,37.58 L142.34,37.83 L142.84,38.09 L143.34,38.36 L143.85,38.65 L144.35,38.95 L144.85,39.27 L145.35,39.60 L145.85,39.94 L146.35,40.30 L146.85,40.67 L147.35,41.05 L147.85,41.45 L148.36,41.86 L148.86,42.29 L149.36,42.73 L149.86,43.18 L150.36,43.65 L150.86,44.13 L151.36,44.62 L151.86,45.13 L152.37,45.65 L152.87,46.18 L153.37,46.73 L153.87,47.30 L154.37,47.87 L154.87,48.46 L155.37,49.07 L155.87,49.69 L156.38,50.32 L156.88,50.96 L157.38,51.62 L157.88,52.30 L158.38,52.98 L158.88,53.68 L159.38,54.40 L159.88,55.12 L160.38,55.87 L160.89,56.62 L161.39,57.39 L161.89,58.17 L162.39,58.97 L162.89,59.78 L163.39,60.60 L163.89,61.44 L164.39,62.29 L164.90,63.16 L165.40,64.04 L165.90,64.93 L166.40,65.84 L166.90,66.76 L167.40,67.69 L167.90,68.64 L168.40,69.60 L168.91,70.58 L169.41,71.57 L169.91,72.57 L170.41,73.59 L170.91,74.62 L171.41,75.66 L171.91,76.72 L172.41,77.79 L172.91,78.88 L173.42,79.97 L173.92,81.09 L174.42,82.21 L174.92,83.35 L175.42,84.51 L175.92,85.68 L176.42,86.86 L176.92,88.05 L177.43,89.26 L177.93,90.49 L178.43,91.72 L178.93,92.97 L179.43,94.24 L179.93,95.51 L180.43,96.81 L180.93,98.11 L181.44,99.43 L181.94,100.76 L182.44,102.11 L182.94,103.47 L183.44,104.84 L183.94,106.23 L184.44,107.63 L184.94,109.05 L185.45,110.48 L185.95,111.92 L186.45,113.38 L186.95,114.85 L187.45,116.33 L187.95,117.83 L188.45,119.34 L188.95,120.87 L189.45,122.41 L189.96,123.96 L190.46,125.53 L190.96,127.11 L191.46,128.70 L191.96,130.31 L192.46,131.93 L192.96,133.57 L193.46,135.21 L193.97,136.88 L194.47,138.55 L194.97,140.24 L195.47,141.95 L195.97,143.67 L196.47,145.40 L196.97,147.14 L197.47,148.90 L197.98,150.68 L198.48,152.46 L198.98,154.26 L199.48,156.08 L199.98,157.90 L200.48,159.75 L200.98,161.60 L201.48,163.47 L201.98,165.35 L202.49,167.25 L202.99,169.16 L203.49,171.08 L203.99,173.02 L204.49,174.97 L204.99,176.94 L205.49,178.92 L205.99,180.91 L206.50,182.92 L207.00,184.94 L207.50,186.97 L208.00,189.02 L208.33,190.39" style="stroke-width: 2px; stroke: rgb(74, 144, 226); stroke-opacity: 0.8;"/></g></g><g class="test-xtl" style="font-family: &quot;Open Sans&quot;, verdana, arial, sans-serif;"><text text-anchor="middle" font-size="11" dominant-baseline="hanging" stroke="none" fill="rgb(50,50,50)" fill-opacity="1" x="42.665" y="65.66666666666666">-1</text><text text-anchor="middle" font-size="11" dominant-baseline="hanging" stroke="none" fill="rgb(50,50,50)" fill-opacity="1" x="162.20000000000002" y="65.66666666666666">1</text><text text-anchor="middle" font-size="11" dominant-baseline="hanging" stroke="none" fill="rgb(50,50,50)" fill-opacity="1" x="96" y="63.66666666666666">0</text></g><g class="test-ytl" style="font-family: &quot;Open Sans&quot;, verdana, arial, sans-serif;"><text text-anchor="end" dominant-baseline="middle" font-size="11" stroke="none" fill="rgb(50,50,50)" fill-opacity="1" x="96" y="105.01666666666667">-0.5</text><text text-anchor="end" dominant-baseline="middle" font-size="11" stroke="none" fill="rgb(50,50,50)" fill-opacity="1" x="96" y="12.316666666666634">0.5</text></g><rect class="real" x="1" y="1" width="206.33333333333334" height="115.66666666666666" style="fill: transparent; stroke: none;"/></g></g></g><g class="composite-shape"><path class="real" d=" M162.61,83.4 C158.92,80.91 155.22,79.38 151.5,78.85 C155.23,78.4 158.97,76.98 162.72,74.57" style="stroke-width: 1px; stroke: rgb(0, 0, 0); fill: none; fill-opacity: 1;"/></g><g class="composite-shape"><path class="real" d=" M197.43,74.59 C201.19,76.98 204.93,78.4 208.67,78.83 C204.95,79.38 201.25,80.91 197.57,83.42" style="stroke-width: 1px; stroke: rgb(0, 0, 0); fill: none; fill-opacity: 1;"/></g><g class="composite-shape"><path class="real" d=" M86.75,73.7 C90.33,76.35 93.96,78.03 97.66,78.72 C93.91,79.01 90.12,80.27 86.27,82.52" style="stroke-width: 1px; stroke: rgb(0, 0, 0); fill: none; fill-opacity: 1;"/></g><g/></g><g/><g/><g/></svg>
        <svg xmlns="http://www.w3.org/2000/svg" xmlns:xlink="http://www.w3.org/1999/xlink" width="660" height="150.65625" style="width:660px;height:150.65625px;font-family:Asana-Math, Asana;background:#FFF;"><g><g><g><g><g><g><g transform="matrix(1,0,0,1,132.00067138671875,18)"><path transform="matrix(0.017,0,0,-0.017,0,0)" d="M9 1C24 -7 40 -11 52 -11C85 -11 124 18 155 65L231 182L242 113C255 28 278 -11 314 -11C336 -11 368 6 400 35L449 79L440 98C404 68 379 53 363 53C348 53 335 63 325 83C316 102 305 139 300 168L282 269L317 318C364 383 391 406 422 406C438 406 450 398 455 383L469 387L484 472C472 479 463 482 454 482C414 482 374 446 312 354L275 299L269 347C257 446 230 482 171 482C145 482 123 474 114 461L56 378L73 368C103 402 123 416 142 416C175 416 197 375 214 277L225 215L185 153C142 86 108 54 80 54C65 54 54 58 52 63L41 91L21 88C21 53 13 27 9 1Z" stroke="rgb(0,0,0)" stroke-opacity="1" stroke-width="0" fill="rgb(0,0,0)" fill-opacity="1"></path></g></g></g></g><g><g transform="matrix(1,0,0,1,134.9757080078125,18)"><path transform="matrix(0.017,0,0,-0.017,0,0)" d="M124 800C94 800 67 772 67 742C67 712 94 684 123 684C155 684 183 711 183 742C183 772 155 800 124 800Z" stroke="rgb(0,0,0)" stroke-opacity="1" stroke-width="0" fill="rgb(0,0,0)" fill-opacity="1"></path></g></g></g></g></g><g><g><g><g transform="matrix(1,0,0,1,233.5,85.5)"><path transform="matrix(0.017,0,0,-0.017,0,0)" d="M9 1C24 -7 40 -11 52 -11C85 -11 124 18 155 65L231 182L242 113C255 28 278 -11 314 -11C336 -11 368 6 400 35L449 79L440 98C404 68 379 53 363 53C348 53 335 63 325 83C316 102 305 139 300 168L282 269L317 318C364 383 391 406 422 406C438 406 450 398 455 383L469 387L484 472C472 479 463 482 454 482C414 482 374 446 312 354L275 299L269 347C257 446 230 482 171 482C145 482 123 474 114 461L56 378L73 368C103 402 123 416 142 416C175 416 197 375 214 277L225 215L185 153C142 86 108 54 80 54C65 54 54 58 52 63L41 91L21 88C21 53 13 27 9 1Z" stroke="rgb(0,0,0)" stroke-opacity="1" stroke-width="0" fill="rgb(0,0,0)" fill-opacity="1"></path></g></g></g></g></svg>
</svg>
